<svg version="1.1" id="Layer_1" xmlns="http://www.w3.org/2000/svg" xmlns:xlink="http://www.w3.org/1999/xlink" x="0px" y="0px"
	 width="100%" viewBox="0 0 200 100" enable-background="new 0 0 200 100" xml:space="preserve">
<path fill="#000000" opacity="1.000000" stroke="none" 
	d="
M132.000000,101.000000 
	C88.000015,101.000000 44.500027,101.000000 1.000029,101.000000 
	C1.000019,67.666687 1.000019,34.333378 1.000010,1.000051 
	C67.666626,1.000034 134.333252,1.000034 200.999908,1.000017 
	C200.999939,34.333279 200.999939,67.666557 200.999969,100.999924 
	C178.166672,101.000000 155.333328,101.000000 132.000000,101.000000 
M61.216560,53.213673 
	C61.216560,53.213673 61.638599,53.265827 61.638599,53.265827 
	C61.638599,53.265827 61.982811,52.987843 62.710720,53.012009 
	C65.153915,53.001804 67.597115,52.991600 70.407829,53.070827 
	C70.407829,53.070827 70.784416,53.106827 70.971199,53.657433 
	C71.294907,54.093243 71.618622,54.529057 72.744179,54.984470 
	C74.106400,55.937260 76.623962,56.883305 76.629570,57.844013 
	C76.653053,61.866512 79.086349,61.146446 81.337814,60.683994 
	C82.937119,60.355499 84.440781,59.561375 86.001915,58.997429 
	C86.001915,58.997429 86.024300,59.012115 86.196297,59.684952 
	C87.671997,60.148399 89.147697,60.611851 90.680473,61.093227 
	C90.870682,57.510761 92.116753,53.582481 90.926834,52.597740 
	C87.974869,50.154778 83.967087,47.926289 80.276588,47.741161 
	C76.719292,47.562717 75.883820,46.638939 76.427925,43.234203 
	C79.439301,42.701317 82.450676,42.168430 85.462051,41.635544 
	C81.060966,41.232430 76.328598,39.162014 72.999695,43.999390 
	C72.999695,43.999390 72.966797,43.965164 72.238243,44.101181 
	C71.772064,45.708519 71.305893,47.315857 70.449173,48.946991 
	C70.449173,48.946991 70.067375,49.032623 69.633095,48.535503 
	C68.614815,46.757847 71.589928,43.031773 66.453033,42.774765 
	C66.303368,42.668518 66.153694,42.562271 65.658554,41.958332 
	C64.244667,41.321899 62.830784,40.685463 60.692184,40.069885 
	C59.238529,40.686699 57.784874,41.303513 55.515423,41.937290 
	C50.002415,42.147026 49.312241,46.365406 49.056763,50.351315 
	C48.706161,55.821358 48.961384,61.330231 48.599506,67.371452 
	C51.168869,68.042305 53.738235,68.713165 56.644135,69.471886 
	C56.938755,66.135338 57.123955,64.038002 57.302193,62.019459 
	C58.864941,61.650860 60.212608,61.332993 60.130207,61.352428 
	C59.389614,59.056732 58.738499,57.038387 58.672470,54.863655 
	C59.150639,54.266956 59.628807,53.670258 60.554203,53.023647 
	C60.554203,53.023647 61.003071,52.991730 61.000000,52.999847 
	C61.000000,52.999847 61.006203,52.994160 61.216560,53.213673 
M43.089638,44.449512 
	C42.893661,44.303120 42.697685,44.156727 42.501705,44.010338 
	C42.620697,44.374500 42.739689,44.738663 43.137733,45.396221 
	C43.405769,45.454807 43.673805,45.513390 43.941841,45.571976 
	C43.701283,45.316372 43.460724,45.060768 43.089638,44.449512 
M181.622604,60.023140 
	C180.890137,59.795540 180.157669,59.567940 179.425201,59.340343 
	C179.342377,59.657127 179.259537,59.973911 179.176712,60.290699 
	C180.018677,60.501259 180.860657,60.711819 181.726852,60.900318 
	C181.726852,60.900318 181.840027,60.874149 181.622604,60.023140 
M194.888382,43.725906 
	C195.030365,44.363262 195.172363,45.000618 195.314346,45.637974 
	C195.543030,45.571476 195.771713,45.504978 196.000397,45.438484 
	C195.698212,44.608311 195.396011,43.778137 194.651230,42.563274 
	C193.928497,42.477421 193.205765,42.391571 192.483047,42.305721 
	C192.466476,42.505478 192.449921,42.705235 192.433365,42.904991 
	C193.224701,42.990448 194.016052,43.075901 194.888382,43.725906 
M68.435181,55.981827 
	C67.905556,56.213974 67.375931,56.446125 66.846306,56.678276 
	C67.463371,56.799709 68.080437,56.921143 69.164284,57.704033 
	C69.821487,57.633232 70.478691,57.562428 71.135895,57.491627 
	C70.409653,56.988102 69.683418,56.484581 68.435181,55.981827 
M193.613464,52.931850 
	C193.405243,51.937412 193.197006,50.942974 192.955200,49.334911 
	C192.635223,48.838036 192.315247,48.341164 191.995270,47.844299 
	C191.658508,48.850250 191.321747,49.856205 190.569244,51.109665 
	C190.272339,51.298172 190.118073,51.568157 189.501511,51.783657 
	C188.678101,50.833542 187.854675,49.883427 186.607239,48.444065 
	C185.957626,53.479088 188.960861,54.257530 192.470367,55.275818 
	C192.946335,55.533081 193.422287,55.790344 194.185394,56.674152 
	C195.176300,57.676697 196.167191,58.679237 197.158096,59.681774 
	C197.445251,59.080883 197.732407,58.479988 198.707367,58.043472 
	C198.200867,57.399883 197.694366,56.756294 196.702789,56.049873 
	C196.702789,56.049873 196.230530,55.922493 196.139191,55.253635 
	C195.080200,54.492496 194.021225,53.731358 193.613464,52.931850 
M88.043907,43.948570 
	C88.861092,44.652901 89.678268,45.357231 90.495453,46.061562 
	C90.805969,45.686489 91.116493,45.311420 91.427010,44.936352 
	C90.278145,43.961296 89.129272,42.986240 87.568459,42.228271 
	C87.722664,42.586380 87.876869,42.944489 88.043907,43.948570 
M155.896347,45.713558 
	C155.633682,46.788158 155.371017,47.862755 154.951462,48.154751 
	C154.719437,46.163834 154.487411,44.172916 153.519577,42.021591 
	C147.821945,42.021591 142.124313,42.021591 135.631821,42.021591 
	C136.080429,51.285942 136.483459,59.608917 137.699127,67.957993 
	C139.113449,67.615318 141.496262,67.636986 141.784546,66.870697 
	C143.620148,61.991341 148.504745,61.035183 151.964676,58.292267 
	C152.270905,58.049500 152.268082,57.416908 152.446991,56.842846 
	C150.521667,55.764862 148.678772,54.733017 146.905167,52.833862 
	C146.958832,51.672581 147.044556,50.511753 147.060883,49.349949 
	C147.157394,42.477505 147.151978,42.477428 154.065720,43.923393 
	C154.065720,47.610489 154.065720,51.297588 154.065720,54.984684 
	C154.287415,54.974705 154.509125,54.964722 154.730820,54.954739 
	C154.860962,54.326309 154.991104,53.697880 155.690170,53.482471 
	C156.112274,54.815807 156.534363,56.149147 157.129074,58.060600 
	C162.858688,63.341633 169.522476,59.849731 176.366684,60.369984 
	C176.882233,59.144970 177.825790,57.921185 177.829315,56.694702 
	C177.838226,53.592789 176.501328,50.198578 177.368942,47.446487 
	C179.286774,41.363110 175.883820,41.771614 171.395966,41.602898 
	C167.939529,41.726616 164.483078,41.850334 160.344498,41.679840 
	C157.041702,40.364193 155.491104,41.337608 155.896347,45.713558 
M195.145874,64.843613 
	C193.609985,63.598595 192.074097,62.353577 190.538223,61.108559 
	C190.284744,63.034698 190.574646,65.107979 191.700714,65.779846 
	C192.708145,66.380928 194.637436,65.436943 196.718140,64.939400 
	C197.032303,64.254692 197.346466,63.569984 197.660629,62.885277 
	C197.378922,62.751656 197.097214,62.618038 196.815506,62.484417 
	C196.483917,63.272331 196.152344,64.060242 195.145874,64.843613 
M127.895798,37.209164 
	C128.162460,32.151863 125.052406,34.825901 122.302902,35.419945 
	C122.724434,36.917171 123.145958,38.414402 123.567482,39.911633 
	C124.952164,39.228622 126.336845,38.545612 127.895798,37.209164 
M132.984604,44.011612 
	C132.984604,44.011612 133.042755,44.008011 132.970612,43.199451 
	C129.791626,39.799122 120.641022,40.128124 115.373833,44.159195 
	C113.953812,44.123672 112.533798,44.088150 110.614388,43.769428 
	C110.402084,42.848980 110.189789,41.928535 110.788628,41.083328 
	C115.066116,40.110973 112.669411,37.207432 112.143021,35.280079 
	C111.872566,34.289822 109.958305,33.140732 108.775261,33.127815 
	C105.874588,33.096157 102.967155,33.682430 99.437386,34.274479 
	C94.177094,36.324860 95.497978,39.830643 97.699532,43.340664 
	C92.091530,47.158356 94.819000,52.311871 95.651443,56.584320 
	C96.574020,61.319344 101.287521,60.851604 105.714813,61.250507 
	C109.720474,61.410702 113.536469,61.223778 114.905083,56.296471 
	C114.990501,57.911327 115.075928,59.526184 115.158737,61.091652 
	C116.877777,61.091652 118.328178,61.117989 119.777191,61.084274 
	C121.239136,61.050255 122.699677,60.956646 124.160835,60.889141 
	C116.953125,59.173977 116.945572,59.173943 116.979553,51.540955 
	C116.987694,49.712032 117.064384,47.883415 117.609993,45.606518 
	C120.125809,44.585228 122.641617,43.563938 125.057686,43.397346 
	C125.300163,47.982025 125.542648,52.566704 125.754593,56.573906 
	C128.774750,54.296333 131.010056,52.610641 133.488159,51.653278 
	C133.673431,53.838509 133.858704,56.023739 134.043976,58.208965 
	C134.661346,58.116871 135.278702,58.024773 135.896072,57.932678 
	C134.928665,53.273148 133.961273,48.613621 132.984604,44.011612 
M6.009882,58.062363 
	C6.009882,53.288097 6.009882,48.513828 6.009882,43.547077 
	C8.103039,43.210278 9.791261,42.938629 12.674583,42.474686 
	C9.099550,42.062057 6.836885,41.800903 4.017358,41.475475 
	C4.017358,47.389095 3.975176,53.164532 4.110338,58.935814 
	C4.119549,59.329090 5.459758,59.691196 6.728934,60.326416 
	C7.565251,60.326416 8.401568,60.326416 9.237886,60.326416 
	C9.220254,60.030273 9.202621,59.734135 9.184989,59.437992 
	C8.167598,59.287399 7.150208,59.136806 6.009882,58.062363 
M18.620001,51.440506 
	C17.673300,52.325352 16.726599,53.210201 15.206388,53.747036 
	C14.352325,53.589813 13.498263,53.432587 12.573319,53.262314 
	C13.343489,55.997868 14.004270,58.344891 14.692669,60.790009 
	C17.272694,60.790009 19.863869,60.790009 22.930796,60.790009 
	C22.930796,57.036873 22.930796,53.501202 23.686098,49.964596 
	C24.753994,49.233776 25.821890,48.502956 26.892332,47.153263 
	C27.269880,46.435448 27.647427,45.717628 28.729101,44.710548 
	C31.972168,43.954639 35.215237,43.198730 38.458305,42.442822 
	C38.357155,42.028412 38.256008,41.614006 38.154858,41.199600 
	C34.748318,42.175240 31.341776,43.150879 27.455816,44.354725 
	C26.418343,44.191792 24.561131,44.226089 24.467304,43.836121 
	C23.215221,38.632069 19.154999,41.213970 16.527472,41.332169 
	C15.217309,41.391106 14.031617,44.216995 12.789623,45.791294 
	C13.450917,46.062557 14.112211,46.333820 15.181587,47.267838 
	C16.251394,47.894997 17.321201,48.522152 18.454632,49.636040 
	C18.666901,50.075161 18.879171,50.514282 18.620001,51.440506 
M43.981464,55.359146 
	C41.958858,52.465427 39.936253,49.571709 37.913647,46.677986 
	C37.334190,46.775681 36.754734,46.873371 36.175278,46.971066 
	C38.249096,51.282635 37.093563,53.179321 33.256840,52.661354 
	C34.036068,54.552734 34.803413,56.415279 35.570763,58.277824 
	C35.174889,58.621281 34.779018,58.964737 34.383144,59.308197 
	C31.900644,58.416325 29.418144,57.524452 26.935644,56.632580 
	C27.362249,58.638397 28.401423,60.739304 29.588610,60.826569 
	C34.700359,61.202309 39.855537,60.987118 45.227573,60.987118 
	C44.631836,58.618946 44.315289,57.360607 43.981464,55.359146 
M186.052109,61.518768 
	C185.763412,60.740273 185.474716,59.961777 185.186005,59.183285 
	C184.683319,59.461411 184.180618,59.739540 183.677933,60.017666 
	C184.273636,60.583271 184.869339,61.148872 186.052109,61.518768 
M128.538147,59.204838 
	C129.225555,59.723522 129.912949,60.242203 130.600357,60.760887 
	C130.807098,60.355515 131.013840,59.950142 131.220581,59.544769 
	C130.507431,59.385811 129.794296,59.226852 128.538147,59.204838 
M187.432526,42.825226 
	C187.501190,42.690624 187.647003,42.535599 187.618195,42.426815 
	C187.585327,42.302677 187.388931,42.124653 187.277344,42.133995 
	C186.421631,42.205650 185.569260,42.317215 184.715836,42.416382 
	C184.731110,42.677898 184.746384,42.939419 184.761642,43.200935 
	C185.502457,43.129948 186.243271,43.058960 187.432526,42.825226 
M74.420250,58.163681 
	C74.021088,57.869370 73.621933,57.575054 73.222763,57.280743 
	C73.130188,57.538586 72.922356,57.999386 72.963074,58.022503 
	C73.322121,58.226383 73.725349,58.352463 74.420250,58.163681 
M91.213242,47.591965 
	C91.012619,47.757931 90.811996,47.923897 90.611374,48.089867 
	C90.711014,48.197643 90.810646,48.305420 90.910294,48.413204 
	C91.089218,48.223167 91.268143,48.033131 91.213242,47.591965 
M26.723179,52.932621 
	C26.412281,52.942471 26.101383,52.952324 25.790485,52.962173 
	C25.879391,53.228882 25.968294,53.495594 26.057199,53.762302 
	C26.316315,53.613739 26.575432,53.465179 26.723179,52.932621 
M162.507690,62.497925 
	C162.089935,62.380375 161.672180,62.262825 161.254425,62.145271 
	C161.185760,62.396255 161.117096,62.647243 161.048431,62.898228 
	C161.563553,62.916950 162.078659,62.935673 162.507690,62.497925 
M180.564270,46.137665 
	C180.829224,46.159344 181.094162,46.181023 181.359116,46.202702 
	C181.362747,46.052670 181.366379,45.902634 181.370010,45.752602 
	C181.104050,45.763100 180.838089,45.773594 180.564270,46.137665 
M180.807388,55.629044 
	C181.055679,55.734833 181.303970,55.840622 181.552261,55.946411 
	C181.381256,55.775936 181.210236,55.605465 180.807388,55.629044 
M120.502068,36.129608 
	C120.381401,36.807758 120.260735,37.485912 120.140068,38.164062 
	C120.380005,38.195320 120.619942,38.226574 120.859879,38.257832 
	C120.916534,37.690620 120.973183,37.123405 120.502068,36.129608 
M188.658875,62.521507 
	C188.658875,62.521507 188.435226,62.402981 188.435226,62.402981 
	C188.435226,62.402981 188.474503,62.652897 188.658875,62.521507 
M133.520554,60.298058 
	C133.520554,60.298058 133.599854,60.427586 133.520554,60.298058 
z"/>
<path fill="#080808" opacity="1.000000" stroke="none" 
	d="
M109.977486,41.008087 
	C110.189789,41.928535 110.402084,42.848980 110.857864,44.293457 
	C111.748856,46.653782 112.626801,48.444363 113.001877,50.334721 
	C114.263123,56.691319 109.589577,58.789604 105.106903,60.965561 
	C101.287521,60.851604 96.574020,61.319344 95.651443,56.584320 
	C94.819000,52.311871 92.091530,47.158356 97.699532,43.340664 
	C95.497978,39.830643 94.177094,36.324860 100.050278,34.414505 
	C102.273056,34.668644 103.881783,34.859077 105.493011,34.883213 
	C111.439896,34.972309 111.738266,35.357796 109.977486,41.008087 
z"/>
<path fill="#0F0F0F" opacity="1.000000" stroke="none" 
	d="
M61.416897,40.049026 
	C62.830784,40.685463 64.244667,41.321899 65.771057,42.473549 
	C66.237038,43.000534 66.590530,43.012302 66.944016,43.024075 
	C71.589928,43.031773 68.614815,46.757847 69.811081,49.177505 
	C70.006149,50.873474 70.023232,51.927437 70.040314,52.981400 
	C67.597115,52.991600 65.153915,53.001804 62.102699,53.001972 
	C61.494675,52.991936 61.006203,52.994160 61.006203,52.994160 
	C61.006203,52.994160 61.000000,52.999847 60.878189,52.823444 
	C60.572208,52.428467 60.350750,52.258492 60.042122,52.070240 
	C59.992245,52.003368 59.890385,51.871223 59.961929,51.531391 
	C59.763062,50.139729 59.492641,49.087898 59.222229,48.036072 
	C58.161499,48.857250 56.304668,49.575455 56.182735,50.518070 
	C55.738831,53.949898 55.861801,57.456509 55.795254,60.935387 
	C55.672001,67.378479 55.679096,67.378616 48.956997,66.822464 
	C48.961384,61.330231 48.706161,55.821358 49.056763,50.351315 
	C49.312241,46.365406 50.002415,42.147026 56.303749,41.881851 
	C58.533680,41.233955 59.975288,40.641491 61.416897,40.049026 
M67.708801,45.674694 
	C67.553215,45.728813 67.397629,45.782936 67.242050,45.837059 
	C67.402756,45.891602 67.563469,45.946144 67.708801,45.674694 
z"/>
<path fill="#090909" opacity="1.000000" stroke="none" 
	d="
M161.026642,41.974052 
	C164.483078,41.850334 167.939529,41.726616 171.739594,42.195690 
	C177.188690,47.286911 176.338776,53.183506 175.479614,58.984879 
	C168.999802,59.588657 172.132202,53.975033 170.160233,51.485600 
	C166.974457,55.459461 165.093185,62.034046 158.028168,57.029381 
	C158.254181,52.706795 158.465820,48.822365 158.946762,44.849873 
	C159.819580,43.832561 160.423111,42.903305 161.026642,41.974052 
M165.060287,53.305302 
	C165.060287,53.305302 165.395584,53.258144 165.395584,53.258144 
	C165.395584,53.258144 165.114273,52.947418 164.976852,52.749161 
	C164.976852,52.749161 164.620605,52.797607 164.620605,52.797607 
	C164.620605,52.797607 164.948669,53.113045 165.060287,53.305302 
M167.312958,47.473148 
	C167.144363,47.613346 166.975754,47.753548 166.807159,47.893749 
	C166.901382,47.991188 166.995621,48.088627 167.089844,48.186066 
	C167.236450,48.022575 167.383072,47.859089 167.312958,47.473148 
M163.805161,49.484619 
	C163.805161,49.484619 164.143005,49.590443 164.143005,49.590443 
	C164.143005,49.590443 163.926804,49.344604 163.805161,49.484619 
z"/>
<path fill="#0F0F0F" opacity="1.000000" stroke="none" 
	d="
M85.987129,58.975075 
	C84.440781,59.561375 82.937119,60.355499 81.337814,60.683994 
	C79.086349,61.146446 76.653053,61.866512 76.629570,57.844013 
	C76.623962,56.883305 74.106400,55.937260 72.382736,54.643150 
	C71.965462,53.861580 71.909630,53.421333 71.885529,52.585747 
	C71.870903,51.136200 71.824554,50.081993 71.930511,48.672569 
	C72.377464,46.866623 72.672127,45.415894 72.966797,43.965164 
	C72.966797,43.965164 72.999695,43.999390 73.322289,44.157936 
	C74.372482,44.104923 75.100090,43.893360 75.827690,43.681793 
	C75.883820,46.638939 76.719292,47.562717 80.276588,47.741161 
	C83.967087,47.926289 87.974869,50.154778 90.926834,52.597740 
	C92.116753,53.582481 90.870682,57.510761 90.680473,61.093227 
	C89.147697,60.611851 87.671997,60.148399 86.175133,59.301437 
	C86.153969,58.917923 86.166344,58.736740 86.166344,58.736740 
	C86.166344,58.736740 85.987129,58.975075 85.987129,58.975075 
M81.966003,51.651676 
	C82.203720,51.590096 82.441429,51.528515 82.679146,51.466930 
	C82.514198,51.254784 82.349251,51.042641 81.939331,50.584534 
	C81.802361,50.582127 81.665398,50.579720 81.528427,50.577316 
	C81.573196,50.835548 81.617966,51.093777 81.966003,51.651676 
z"/>
<path fill="#030304" opacity="1.000000" stroke="none" 
	d="
M146.835861,53.701172 
	C148.678772,54.733017 150.521667,55.764862 152.446991,56.842846 
	C152.268082,57.416908 152.270905,58.049500 151.964676,58.292267 
	C148.504745,61.035183 143.620148,61.991341 141.784546,66.870697 
	C141.496262,67.636986 139.113449,67.615318 137.323425,67.482704 
	C136.960709,60.058037 136.829681,53.102428 137.129608,46.165455 
	C137.179092,45.020847 139.116714,43.957878 140.181747,42.857185 
	C141.116440,43.912403 142.560989,44.838818 142.867645,46.052692 
	C143.340408,47.924030 142.873764,50.010620 143.098343,51.972393 
	C143.370712,54.351772 144.628983,55.202740 146.835861,53.701172 
z"/>
<path fill="#0F0F0F" opacity="1.000000" stroke="none" 
	d="
M43.990105,55.730705 
	C44.315289,57.360607 44.631836,58.618946 45.227573,60.987118 
	C39.855537,60.987118 34.700359,61.202309 29.588610,60.826569 
	C28.401423,60.739304 27.362249,58.638397 26.935644,56.632580 
	C29.418144,57.524452 31.900644,58.416325 34.383144,59.308197 
	C34.779018,58.964737 35.174889,58.621281 35.570763,58.277824 
	C34.803413,56.415279 34.036068,54.552734 33.256840,52.661354 
	C37.093563,53.179321 38.249096,51.282635 36.175278,46.971066 
	C36.754734,46.873371 37.334190,46.775681 37.913647,46.677986 
	C39.936253,49.571709 41.958858,52.465427 43.990105,55.730705 
M40.148773,57.018021 
	C40.519516,57.112473 40.890255,57.206924 41.261002,57.301373 
	C41.203827,56.766159 41.146652,56.230942 41.089481,55.695732 
	C40.789009,55.981354 40.488541,56.266975 40.148773,57.018021 
z"/>
<path fill="#434344" opacity="1.000000" stroke="none" 
	d="
M146.870514,53.267517 
	C144.628983,55.202740 143.370712,54.351772 143.098343,51.972393 
	C142.873764,50.010620 143.340408,47.924030 142.867645,46.052692 
	C142.560989,44.838818 141.116440,43.912403 140.181747,42.857185 
	C139.116714,43.957878 137.179092,45.020847 137.129608,46.165455 
	C136.829681,53.102428 136.960709,60.058037 136.917099,67.469650 
	C136.483459,59.608917 136.080429,51.285942 135.631821,42.021591 
	C142.124313,42.021591 147.821945,42.021591 153.876205,42.327354 
	C154.232834,42.633114 153.980972,43.008045 153.980972,43.008045 
	C147.151978,42.477428 147.157394,42.477505 147.060883,49.349949 
	C147.044556,50.511753 146.958832,51.672581 146.870514,53.267517 
z"/>
<path fill="#515151" opacity="1.000000" stroke="none" 
	d="
M105.410858,61.108032 
	C109.589577,58.789604 114.263123,56.691319 113.001877,50.334721 
	C112.626801,48.444363 111.748856,46.653782 111.107559,44.435055 
	C112.533798,44.088150 113.953812,44.123672 115.722839,44.303520 
	C116.417740,44.983452 116.763641,45.519054 117.109543,46.054657 
	C117.064384,47.883415 116.987694,49.712032 116.979553,51.540955 
	C116.945572,59.173943 116.953125,59.173977 124.160835,60.889141 
	C122.699677,60.956646 121.239136,61.050255 119.777191,61.084274 
	C118.328178,61.117989 116.877777,61.091652 115.158737,61.091652 
	C115.075928,59.526184 114.990501,57.911327 114.905083,56.296471 
	C113.536469,61.223778 109.720474,61.410702 105.410858,61.108032 
z"/>
<path fill="#070708" opacity="1.000000" stroke="none" 
	d="
M133.245346,50.924950 
	C131.010056,52.610641 128.774750,54.296333 125.754593,56.573906 
	C125.542648,52.566704 125.300163,47.982025 125.510422,42.976646 
	C128.323013,43.039970 130.682892,43.523991 133.042755,44.008011 
	C133.042755,44.008011 132.984604,44.011612 132.884460,44.412102 
	C132.938004,46.850044 133.091675,48.887497 133.245346,50.924950 
z"/>
<path fill="#4B4B4B" opacity="1.000000" stroke="none" 
	d="
M48.778252,67.096954 
	C55.679096,67.378616 55.672001,67.378479 55.795254,60.935387 
	C55.861801,57.456509 55.738831,53.949898 56.182735,50.518070 
	C56.304668,49.575455 58.161499,48.857250 59.222229,48.036072 
	C59.492641,49.087898 59.763062,50.139729 59.638702,51.643250 
	C58.858410,53.069977 58.472893,54.045010 58.087379,55.020042 
	C58.738499,57.038387 59.389614,59.056732 60.130207,61.352428 
	C60.212608,61.332993 58.864941,61.650860 57.302193,62.019459 
	C57.123955,64.038002 56.938755,66.135338 56.644135,69.471886 
	C53.738235,68.713165 51.168869,68.042305 48.778252,67.096954 
z"/>
<path fill="#0F0F0F" opacity="1.000000" stroke="none" 
	d="
M158.013809,57.467537 
	C165.093185,62.034046 166.974457,55.459461 170.160233,51.485600 
	C172.132202,53.975033 168.999802,59.588657 175.467606,59.251175 
	C175.839218,59.695629 175.816269,59.871838 175.793320,60.048046 
	C169.522476,59.849731 162.858688,63.341633 157.309921,57.966125 
	C157.665115,57.736942 157.839462,57.602238 158.013809,57.467537 
z"/>
<path fill="#515151" opacity="1.000000" stroke="none" 
	d="
M28.024975,44.999813 
	C27.647427,45.717628 27.269880,46.435448 26.680183,47.510616 
	C25.741322,47.963699 25.014608,48.059429 23.865801,47.985687 
	C22.582151,47.531971 21.720594,47.247723 20.911560,46.596424 
	C21.159016,45.275375 21.353949,44.321377 21.559845,43.313728 
	C17.948912,41.985050 15.560555,42.686996 14.773506,46.605083 
	C14.112211,46.333820 13.450917,46.062557 12.789623,45.791294 
	C14.031617,44.216995 15.217309,41.391106 16.527472,41.332169 
	C19.154999,41.213970 23.215221,38.632069 24.467304,43.836121 
	C24.561131,44.226089 26.418343,44.191792 27.699722,44.460533 
	C27.943630,44.566341 28.024975,44.999813 28.024975,44.999813 
z"/>
<path fill="#5D5D5D" opacity="1.000000" stroke="none" 
	d="
M20.859037,46.963478 
	C21.720594,47.247723 22.582151,47.531971 23.596676,48.259926 
	C23.476696,49.124264 23.203745,49.544895 22.930796,49.965527 
	C22.930796,53.501202 22.930796,57.036873 22.930796,60.790009 
	C19.863869,60.790009 17.272694,60.790009 14.692669,60.790009 
	C14.004270,58.344891 13.343489,55.997868 12.573319,53.262314 
	C13.498263,53.432587 14.352325,53.589813 15.534336,54.339432 
	C16.000303,56.384998 16.138323,57.838173 16.286106,59.394138 
	C18.249208,59.394138 19.953444,59.394138 23.460758,59.394138 
	C21.642275,55.881157 20.366858,53.417278 19.091440,50.953403 
	C18.879171,50.514282 18.666901,50.075161 18.687923,49.305893 
	C19.567156,48.304989 20.213097,47.634232 20.859037,46.963478 
z"/>
<path fill="#434344" opacity="1.000000" stroke="none" 
	d="
M6.180958,60.067799 
	C5.459758,59.691196 4.119549,59.329090 4.110338,58.935814 
	C3.975176,53.164532 4.017358,47.389095 4.017358,41.475475 
	C6.836885,41.800903 9.099550,42.062057 12.674583,42.474686 
	C9.791261,42.938629 8.103039,43.210278 6.009882,43.547077 
	C6.009882,48.513828 6.009882,53.288097 6.060140,58.795746 
	C6.133917,59.708687 6.157438,59.888245 6.180958,60.067799 
z"/>
<path fill="#4B4B4B" opacity="1.000000" stroke="none" 
	d="
M176.080002,60.209015 
	C175.816269,59.871838 175.839218,59.695629 175.874176,59.253120 
	C176.338776,53.183506 177.188690,47.286911 172.054291,42.436836 
	C175.883820,41.771614 179.286774,41.363110 177.368942,47.446487 
	C176.501328,50.198578 177.838226,53.592789 177.829315,56.694702 
	C177.825790,57.921185 176.882233,59.144970 176.080002,60.209015 
z"/>
<path fill="#050505" opacity="1.000000" stroke="none" 
	d="
M18.855721,51.196953 
	C20.366858,53.417278 21.642275,55.881157 23.460758,59.394138 
	C19.953444,59.394138 18.249208,59.394138 16.286106,59.394138 
	C16.138323,57.838173 16.000303,56.384998 15.821091,54.513435 
	C16.726599,53.210201 17.673300,52.325352 18.855721,51.196953 
z"/>
<path fill="#535354" opacity="1.000000" stroke="none" 
	d="
M133.006683,43.603729 
	C130.682892,43.523991 128.323013,43.039970 125.560287,42.549301 
	C122.641617,43.563938 120.125809,44.585228 117.359764,45.830589 
	C116.763641,45.519054 116.417740,44.983452 116.003494,44.129898 
	C120.641022,40.128124 129.791626,39.799122 133.006683,43.603729 
z"/>
<path fill="#050505" opacity="1.000000" stroke="none" 
	d="
M20.911560,46.596424 
	C20.213097,47.634232 19.567156,48.304989 18.656113,49.062527 
	C17.321201,48.522152 16.251394,47.894997 14.977547,46.936462 
	C15.560555,42.686996 17.948912,41.985050 21.559845,43.313728 
	C21.353949,44.321377 21.159016,45.275375 20.911560,46.596424 
z"/>
<path fill="#434344" opacity="1.000000" stroke="none" 
	d="
M110.383057,41.045708 
	C111.738266,35.357796 111.439896,34.972309 105.493011,34.883213 
	C103.881783,34.859077 102.273056,34.668644 100.362808,34.287308 
	C102.967155,33.682430 105.874588,33.096157 108.775261,33.127815 
	C109.958305,33.140732 111.872566,34.289822 112.143021,35.280079 
	C112.669411,37.207432 115.066116,40.110973 110.383057,41.045708 
z"/>
<path fill="#6B9F3C" opacity="1.000000" stroke="none" 
	d="
M123.002731,35.072083 
	C125.052406,34.825901 128.162460,32.151863 127.503242,37.705421 
	C123.567924,40.011375 122.881996,38.071148 123.002731,35.072083 
z"/>
<path fill="#535354" opacity="1.000000" stroke="none" 
	d="
M133.366760,51.289116 
	C133.091675,48.887497 132.938004,46.850044 132.889099,44.383339 
	C133.961273,48.613621 134.928665,53.273148 135.896072,57.932678 
	C135.278702,58.024773 134.661346,58.116871 134.043976,58.208965 
	C133.858704,56.023739 133.673431,53.838509 133.366760,51.289116 
z"/>
<path fill="#080808" opacity="1.000000" stroke="none" 
	d="
M196.159973,65.174675 
	C194.637436,65.436943 192.708145,66.380928 191.700714,65.779846 
	C190.574646,65.107979 190.284744,63.034698 190.538223,61.108559 
	C192.074097,62.353577 193.609985,63.598595 195.569794,64.925766 
	C195.993729,65.007919 196.159973,65.174675 196.159973,65.174675 
z"/>
<path fill="#5D5D5D" opacity="1.000000" stroke="none" 
	d="
M158.028168,57.029381 
	C157.839462,57.602238 157.665115,57.736942 157.223602,57.677067 
	C156.534363,56.149147 156.112274,54.815807 155.362732,52.863701 
	C155.059647,51.142403 155.084000,50.039879 155.108353,48.937355 
	C155.371017,47.862755 155.633682,46.788158 156.397400,45.203705 
	C157.491455,44.775211 158.084473,44.856571 158.677475,44.937931 
	C158.465820,48.822365 158.254181,52.706795 158.028168,57.029381 
z"/>
<path fill="#0F0F0F" opacity="1.000000" stroke="none" 
	d="
M158.946762,44.849873 
	C158.084473,44.856571 157.491455,44.775211 156.450165,44.848911 
	C155.491104,41.337608 157.041702,40.364193 160.685577,41.826946 
	C160.423111,42.903305 159.819580,43.832561 158.946762,44.849873 
z"/>
<path fill="#535354" opacity="1.000000" stroke="none" 
	d="
M76.127808,43.458000 
	C75.100090,43.893360 74.372482,44.104923 73.306259,44.141674 
	C76.328598,39.162014 81.060966,41.232430 85.462051,41.635544 
	C82.450676,42.168430 79.439301,42.701317 76.127808,43.458000 
z"/>
<path fill="#080808" opacity="1.000000" stroke="none" 
	d="
M192.004944,54.998440 
	C188.960861,54.257530 185.957626,53.479088 186.607239,48.444065 
	C187.854675,49.883427 188.678101,50.833542 189.770065,51.874283 
	C190.038620,51.964912 189.999969,51.894730 190.206665,52.116852 
	C190.963943,52.568707 191.514511,52.798435 192.033920,53.355556 
	C192.003479,54.121445 192.004211,54.559944 192.004944,54.998440 
z"/>
<path fill="#0F0F0F" opacity="1.000000" stroke="none" 
	d="
M28.377037,44.855179 
	C28.024975,44.999813 27.943630,44.566341 27.939434,44.346432 
	C31.341776,43.150879 34.748318,42.175240 38.154858,41.199600 
	C38.256008,41.614006 38.357155,42.028412 38.458305,42.442822 
	C35.215237,43.198730 31.972168,43.954639 28.377037,44.855179 
z"/>
<path fill="#FFFFFF" opacity="1.000000" stroke="none" 
	d="
M155.029907,48.546051 
	C155.084000,50.039879 155.059647,51.142403 155.078247,52.657188 
	C154.991104,53.697880 154.860962,54.326309 154.730820,54.954739 
	C154.509125,54.964722 154.287415,54.974705 154.065720,54.984684 
	C154.065720,51.297588 154.065720,47.610489 154.023346,43.465721 
	C153.980972,43.008045 154.232834,42.633114 154.244110,42.407555 
	C154.487411,44.172916 154.719437,46.163834 155.029907,48.546051 
z"/>
<path fill="#434344" opacity="1.000000" stroke="none" 
	d="
M122.652817,35.246014 
	C122.881996,38.071148 123.567924,40.011375 127.416107,38.032143 
	C126.336845,38.545612 124.952164,39.228622 123.567482,39.911633 
	C123.145958,38.414402 122.724434,36.917171 122.652817,35.246014 
z"/>
<path fill="#434344" opacity="1.000000" stroke="none" 
	d="
M198.019562,57.879101 
	C197.732407,58.479988 197.445251,59.080883 197.158096,59.681778 
	C196.167191,58.679237 195.176300,57.676697 194.434113,56.383270 
	C195.198730,56.035759 195.714630,55.979126 196.230530,55.922493 
	C196.230530,55.922493 196.702789,56.049873 196.987198,56.339729 
	C197.520920,57.046089 197.770233,57.462597 198.019562,57.879101 
z"/>
<path fill="#080808" opacity="1.000000" stroke="none" 
	d="
M185.758575,61.616623 
	C184.869339,61.148872 184.273636,60.583271 183.677933,60.017670 
	C184.180618,59.739540 184.683319,59.461411 185.186005,59.183285 
	C185.474716,59.961777 185.763412,60.740273 185.758575,61.616623 
z"/>
<path fill="#0F0F0F" opacity="1.000000" stroke="none" 
	d="
M87.980408,42.011185 
	C89.129272,42.986240 90.278145,43.961296 91.427010,44.936352 
	C91.116493,45.311420 90.805969,45.686489 90.495453,46.061562 
	C89.678268,45.357231 88.861092,44.652901 88.049637,43.301384 
	C88.030388,42.439861 88.005394,42.225525 87.980408,42.011185 
z"/>
<path fill="#0F0F0F" opacity="1.000000" stroke="none" 
	d="
M23.308447,49.965061 
	C23.203745,49.544895 23.476696,49.124264 24.018772,48.429398 
	C25.014608,48.059429 25.741322,47.963699 26.678909,47.820053 
	C25.821890,48.502956 24.753994,49.233776 23.308447,49.965061 
z"/>
<path fill="#070708" opacity="1.000000" stroke="none" 
	d="
M128.809662,59.136368 
	C129.794296,59.226852 130.507431,59.385811 131.220581,59.544769 
	C131.013840,59.950142 130.807098,60.355515 130.600357,60.760887 
	C129.912949,60.242203 129.225555,59.723522 128.809662,59.136368 
z"/>
<path fill="#5D5D5D" opacity="1.000000" stroke="none" 
	d="
M71.778214,49.027782 
	C71.824554,50.081993 71.870903,51.136200 71.617905,52.611092 
	C71.140503,53.056793 70.962456,53.081810 70.784416,53.106827 
	C70.784416,53.106827 70.407829,53.070827 70.224075,53.026115 
	C70.023232,51.927437 70.006149,50.873474 70.028221,49.426067 
	C70.067375,49.032623 70.449173,48.946991 70.878433,48.967422 
	C71.307693,48.987858 71.778214,49.027782 71.778214,49.027782 
z"/>
<path fill="#080808" opacity="1.000000" stroke="none" 
	d="
M190.984970,50.862160 
	C191.321747,49.856205 191.658508,48.850250 191.995270,47.844292 
	C192.315247,48.341164 192.635223,48.838036 192.946182,49.874695 
	C192.937164,50.414478 192.967941,50.882233 192.637207,50.899319 
	C191.865967,50.898323 191.425476,50.880241 190.984970,50.862160 
z"/>
<path fill="#535354" opacity="1.000000" stroke="none" 
	d="
M71.930511,48.672569 
	C71.778214,49.027782 71.307693,48.987858 71.073708,48.955528 
	C71.305893,47.315857 71.772064,45.708519 72.602524,44.033173 
	C72.672127,45.415894 72.377464,46.866623 71.930511,48.672569 
z"/>
<path fill="#535354" opacity="1.000000" stroke="none" 
	d="
M196.184860,55.588062 
	C195.714630,55.979126 195.198730,56.035759 194.290543,56.070000 
	C193.422287,55.790344 192.946335,55.533081 192.237656,55.137131 
	C192.004211,54.559944 192.003479,54.121445 192.277893,53.332466 
	C192.553024,52.981979 193.039383,53.042835 193.020386,53.024368 
	C193.001404,53.005898 192.962234,52.970219 192.962234,52.970219 
	C194.021225,53.731358 195.080200,54.492496 196.184860,55.588062 
z"/>
<path fill="#050505" opacity="1.000000" stroke="none" 
	d="
M6.454946,60.197105 
	C6.157438,59.888245 6.133917,59.708687 6.121607,59.257671 
	C7.150208,59.136806 8.167598,59.287399 9.184989,59.437992 
	C9.202621,59.734135 9.220254,60.030273 9.237886,60.326416 
	C8.401568,60.326416 7.565251,60.326416 6.454946,60.197105 
z"/>
<path fill="#434344" opacity="1.000000" stroke="none" 
	d="
M61.054543,40.059456 
	C59.975288,40.641491 58.533680,41.233955 56.711647,41.873371 
	C57.784874,41.303513 59.238529,40.686699 61.054543,40.059456 
z"/>
<path fill="#080808" opacity="1.000000" stroke="none" 
	d="
M195.907257,64.928040 
	C196.152344,64.060242 196.483917,63.272331 196.815506,62.484417 
	C197.097214,62.618038 197.378922,62.751656 197.660629,62.885277 
	C197.346466,63.569984 197.032303,64.254692 196.439056,65.057037 
	C196.159973,65.174675 195.993729,65.007919 195.907257,64.928040 
z"/>
<path fill="#080808" opacity="1.000000" stroke="none" 
	d="
M187.208313,42.906601 
	C186.243271,43.058960 185.502457,43.129948 184.761642,43.200935 
	C184.746384,42.939419 184.731110,42.677898 184.715836,42.416382 
	C185.569260,42.317215 186.421631,42.205650 187.277344,42.133995 
	C187.388931,42.124653 187.585327,42.302677 187.618195,42.426815 
	C187.647003,42.535599 187.501190,42.690624 187.208313,42.906601 
z"/>
<path fill="#0F0F0F" opacity="1.000000" stroke="none" 
	d="
M58.379925,54.941849 
	C58.472893,54.045010 58.858410,53.069977 59.567154,51.983086 
	C59.890385,51.871223 59.992245,52.003368 60.035896,52.303749 
	C60.079548,52.604130 60.106976,53.073559 60.106979,53.073563 
	C59.628807,53.670258 59.150639,54.266956 58.379925,54.941849 
z"/>
<path fill="#535354" opacity="1.000000" stroke="none" 
	d="
M192.967941,50.882233 
	C192.967941,50.882233 192.937164,50.414478 192.962982,50.181507 
	C193.197006,50.942974 193.405243,51.937412 193.287842,52.951035 
	C192.962234,52.970219 193.001404,53.005898 193.007172,52.678162 
	C193.026901,52.119896 193.040863,51.889362 193.023438,51.465759 
	C192.992020,51.272697 192.967941,50.882233 192.967941,50.882233 
z"/>
<path fill="#0F0F0F" opacity="1.000000" stroke="none" 
	d="
M74.267883,58.332619 
	C73.725349,58.352463 73.322121,58.226383 72.963074,58.022503 
	C72.922356,57.999386 73.130188,57.538586 73.222763,57.280743 
	C73.621933,57.575054 74.021088,57.869370 74.267883,58.332619 
z"/>
<path fill="#0E0E0E" opacity="1.000000" stroke="none" 
	d="
M91.330154,47.717529 
	C91.268143,48.033131 91.089218,48.223167 90.910294,48.413200 
	C90.810646,48.305420 90.711014,48.197643 90.611374,48.089867 
	C90.811996,47.923897 91.012619,47.757931 91.330154,47.717529 
z"/>
<path fill="#0F0F0F" opacity="1.000000" stroke="none" 
	d="
M68.697502,57.042580 
	C68.080437,56.921143 67.463371,56.799709 66.846306,56.678276 
	C67.375931,56.446125 67.905556,56.213974 68.616562,56.243229 
	C68.764465,56.683949 68.730988,56.863262 68.697502,57.042580 
z"/>
<path fill="#5D5D5D" opacity="1.000000" stroke="none" 
	d="
M68.930893,57.373306 
	C68.730988,56.863262 68.764465,56.683949 68.877563,56.242844 
	C69.683418,56.484581 70.409653,56.988102 71.135895,57.491627 
	C70.478691,57.562428 69.821487,57.633232 68.930893,57.373306 
z"/>
<path fill="#080808" opacity="1.000000" stroke="none" 
	d="
M194.807404,43.161358 
	C194.016052,43.075901 193.224701,42.990448 192.433365,42.904991 
	C192.449921,42.705235 192.466476,42.505478 192.483047,42.305721 
	C193.205765,42.391571 193.928497,42.477421 194.800262,42.808090 
	C194.949310,43.052906 194.807404,43.161358 194.807404,43.161358 
z"/>
<path fill="#0F0F0F" opacity="1.000000" stroke="none" 
	d="
M26.778864,53.124619 
	C26.575432,53.465179 26.316315,53.613739 26.057199,53.762302 
	C25.968294,53.495594 25.879391,53.228882 25.790485,52.962173 
	C26.101383,52.952324 26.412281,52.942471 26.778864,53.124619 
z"/>
<path fill="#080808" opacity="1.000000" stroke="none" 
	d="
M195.021576,43.000435 
	C195.396011,43.778137 195.698212,44.608311 196.000397,45.438484 
	C195.771713,45.504978 195.543030,45.571476 195.314346,45.637974 
	C195.172363,45.000618 195.030365,44.363262 194.847900,43.443634 
	C194.807404,43.161358 194.949310,43.052906 195.021576,43.000435 
z"/>
<path fill="#090909" opacity="1.000000" stroke="none" 
	d="
M162.550735,62.726158 
	C162.078659,62.935673 161.563553,62.916950 161.048431,62.898228 
	C161.117096,62.647243 161.185760,62.396255 161.254425,62.145271 
	C161.672180,62.262825 162.089935,62.380375 162.550735,62.726158 
z"/>
<path fill="#080808" opacity="1.000000" stroke="none" 
	d="
M180.568207,45.960876 
	C180.838089,45.773594 181.104050,45.763100 181.370010,45.752602 
	C181.366379,45.902634 181.362747,46.052670 181.359116,46.202702 
	C181.094162,46.181023 180.829224,46.159344 180.568207,45.960876 
z"/>
<path fill="#5D5D5D" opacity="1.000000" stroke="none" 
	d="
M181.702621,60.922379 
	C180.860657,60.711819 180.018677,60.501259 179.176712,60.290699 
	C179.259537,59.973911 179.342377,59.657127 179.425201,59.340343 
	C180.157669,59.567940 180.890137,59.795540 181.697403,60.462643 
	C181.772202,60.902145 181.702621,60.922379 181.702621,60.922379 
z"/>
<path fill="#FFFFFF" opacity="1.000000" stroke="none" 
	d="
M198.363464,57.961288 
	C197.770233,57.462597 197.520920,57.046089 197.229736,56.371143 
	C197.694366,56.756294 198.200867,57.399883 198.363464,57.961288 
z"/>
<path fill="#080808" opacity="1.000000" stroke="none" 
	d="
M180.923309,55.532017 
	C181.210236,55.605465 181.381256,55.775936 181.552261,55.946411 
	C181.303970,55.840622 181.055679,55.734833 180.923309,55.532017 
z"/>
<path fill="#5D5D5D" opacity="1.000000" stroke="none" 
	d="
M192.637207,50.899319 
	C192.967941,50.882233 192.992020,51.272697 192.666702,51.632942 
	C191.560913,51.960369 190.780441,51.927551 189.999969,51.894730 
	C189.999969,51.894730 190.038620,51.964912 190.072540,51.942261 
	C190.118073,51.568157 190.272339,51.298172 190.777100,50.985912 
	C191.425476,50.880241 191.865967,50.898323 192.637207,50.899319 
z"/>
<path fill="#434344" opacity="1.000000" stroke="none" 
	d="
M120.765945,36.342903 
	C120.973183,37.123405 120.916534,37.690620 120.859879,38.257832 
	C120.619942,38.226574 120.380005,38.195320 120.140068,38.164062 
	C120.260735,37.485912 120.381401,36.807758 120.765945,36.342903 
z"/>
<path fill="#535354" opacity="1.000000" stroke="none" 
	d="
M70.877808,53.382130 
	C70.962456,53.081810 71.140503,53.056793 71.586182,53.006432 
	C71.909630,53.421333 71.965462,53.861580 71.981812,54.633347 
	C71.618622,54.529057 71.294907,54.093243 70.877808,53.382130 
z"/>
<path fill="#0F0F0F" opacity="1.000000" stroke="none" 
	d="
M43.220165,44.805164 
	C43.460724,45.060768 43.701283,45.316372 43.941841,45.571976 
	C43.673805,45.513390 43.405769,45.454807 43.089058,45.175690 
	C43.040379,44.955154 43.220165,44.805164 43.220165,44.805164 
z"/>
<path fill="#0F0F0F" opacity="1.000000" stroke="none" 
	d="
M42.949532,45.028992 
	C42.739689,44.738663 42.620697,44.374500 42.501709,44.010338 
	C42.697685,44.156727 42.893661,44.303120 43.154900,44.627338 
	C43.220165,44.805164 43.040379,44.955154 42.949532,45.028992 
z"/>
<path fill="#4B4B4B" opacity="1.000000" stroke="none" 
	d="
M66.698524,42.899422 
	C66.590530,43.012302 66.237038,43.000534 65.943787,42.722389 
	C66.153694,42.562271 66.303368,42.668518 66.698524,42.899422 
z"/>
<path fill="#080808" opacity="1.000000" stroke="none" 
	d="
M188.566681,62.587204 
	C188.474503,62.652897 188.435226,62.402981 188.435226,62.402981 
	C188.435226,62.402981 188.658875,62.521507 188.566681,62.587204 
z"/>
<path fill="#080808" opacity="1.000000" stroke="none" 
	d="
M181.714737,60.911346 
	C181.702621,60.922379 181.772202,60.902145 181.806122,60.888145 
	C181.840027,60.874149 181.726852,60.900318 181.714737,60.911346 
z"/>
<path fill="#535354" opacity="1.000000" stroke="none" 
	d="
M133.560211,60.362823 
	C133.599854,60.427586 133.520554,60.298058 133.560211,60.362823 
z"/>
<path fill="#535354" opacity="1.000000" stroke="none" 
	d="
M87.774429,42.119728 
	C88.005394,42.225525 88.030388,42.439861 88.043228,42.978394 
	C87.876869,42.944489 87.722664,42.586380 87.774429,42.119728 
z"/>
<path fill="#090909" opacity="1.000000" stroke="none" 
	d="
M60.330589,53.048603 
	C60.106976,53.073559 60.079548,52.604130 60.085777,52.370621 
	C60.350750,52.258492 60.572208,52.428467 60.879723,52.819386 
	C61.003071,52.991730 60.554203,53.023647 60.330589,53.048603 
z"/>
<path fill="#090909" opacity="1.000000" stroke="none" 
	d="
M61.111382,53.103916 
	C61.006203,52.994160 61.494675,52.991936 61.738743,52.989891 
	C61.982811,52.987843 61.638599,53.265827 61.638599,53.265827 
	C61.638599,53.265827 61.216560,53.213673 61.111382,53.103916 
z"/>
<path fill="#4B4B4B" opacity="1.000000" stroke="none" 
	d="
M67.716492,45.837692 
	C67.563469,45.946144 67.402756,45.891602 67.242050,45.837059 
	C67.397629,45.782936 67.553215,45.728813 67.716492,45.837692 
z"/>
<path fill="#0F0F0F" opacity="1.000000" stroke="none" 
	d="
M167.421326,47.584373 
	C167.383072,47.859089 167.236450,48.022575 167.089844,48.186066 
	C166.995621,48.088627 166.901382,47.991188 166.807159,47.893749 
	C166.975754,47.753548 167.144363,47.613346 167.421326,47.584373 
z"/>
<path fill="#0F0F0F" opacity="1.000000" stroke="none" 
	d="
M163.865982,49.414612 
	C163.926804,49.344604 164.143005,49.590443 164.143005,49.590443 
	C164.143005,49.590443 163.805161,49.484619 163.865982,49.414612 
z"/>
<path fill="#0F0F0F" opacity="1.000000" stroke="none" 
	d="
M164.948669,53.113045 
	C164.948669,53.113045 164.620605,52.797607 164.620605,52.797607 
	C164.620605,52.797607 164.976852,52.749161 164.999969,52.885513 
	C165.023087,53.021862 164.948669,53.113045 164.948669,53.113045 
z"/>
<path fill="#0F0F0F" opacity="1.000000" stroke="none" 
	d="
M165.068680,52.984642 
	C165.114273,52.947418 165.395584,53.258144 165.395584,53.258144 
	C165.395584,53.258144 165.060287,53.305302 165.004486,53.209175 
	C164.948669,53.113045 165.023087,53.021862 165.068680,52.984642 
z"/>
<path fill="#4B4B4B" opacity="1.000000" stroke="none" 
	d="
M81.662735,51.352009 
	C81.617966,51.093777 81.573196,50.835548 81.528427,50.577316 
	C81.665398,50.579720 81.802361,50.582127 81.930664,50.837128 
	C81.921989,51.089725 81.662735,51.352009 81.662735,51.352009 
z"/>
<path fill="#000000" opacity="1.000000" stroke="none" 
	d="
M85.994522,58.986252 
	C85.987129,58.975075 86.166344,58.736740 86.166344,58.736740 
	C86.166344,58.736740 86.153969,58.917923 86.089134,58.965019 
	C86.024300,59.012115 86.001915,58.997429 85.994522,58.986252 
z"/>
<path fill="#4B4B4B" opacity="1.000000" stroke="none" 
	d="
M82.053146,50.960114 
	C82.349251,51.042641 82.514198,51.254784 82.679146,51.466930 
	C82.441429,51.528515 82.203720,51.590096 81.814369,51.501842 
	C81.662735,51.352009 81.921989,51.089725 82.053146,50.960114 
z"/>
<path fill="#000000" opacity="1.000000" stroke="none" 
	d="
M40.168423,56.785309 
	C40.488541,56.266975 40.789009,55.981354 41.089481,55.695732 
	C41.146652,56.230942 41.203827,56.766159 41.261002,57.301376 
	C40.890255,57.206924 40.519516,57.112473 40.168423,56.785309 
z"/>
<path fill="#000000" opacity="1.000000" stroke="none" 
	d="
M190.206665,52.116852 
	C190.780441,51.927551 191.560913,51.960369 192.698120,51.826004 
	C193.040863,51.889362 193.026901,52.119896 193.026169,52.696632 
	C193.039383,53.042835 192.553024,52.981979 192.309052,53.005074 
	C191.514511,52.798435 190.963943,52.568707 190.206665,52.116852 
z"/>
</svg>